<?xml version="1.0" encoding="UTF-8" standalone="no"?>
<svg
   width="326.90454pt"
   height="244.17pt"
   viewBox="0 0 326.90455 244.16999"
   version="1.1"
   id="svg53"
   sodipodi:docname="lines.svg"
   inkscape:version="1.4 (e7c3feb1, 2024-10-09)"
   xmlns:inkscape="http://www.inkscape.org/namespaces/inkscape"
   xmlns:sodipodi="http://sodipodi.sourceforge.net/DTD/sodipodi-0.dtd"
   xmlns="http://www.w3.org/2000/svg"
   xmlns:svg="http://www.w3.org/2000/svg"
   xmlns:rdf="http://www.w3.org/1999/02/22-rdf-syntax-ns#"
   xmlns:cc="http://creativecommons.org/ns#"
   xmlns:dc="http://purl.org/dc/elements/1.1/">
  <sodipodi:namedview
     id="namedview53"
     pagecolor="#ffffff"
     bordercolor="#000000"
     borderopacity="0.25"
     inkscape:showpageshadow="2"
     inkscape:pageopacity="0.0"
     inkscape:pagecheckerboard="0"
     inkscape:deskcolor="#d1d1d1"
     inkscape:document-units="pt"
     inkscape:zoom="0.85449221"
     inkscape:cx="198.36342"
     inkscape:cy="279.69828"
     inkscape:window-width="2560"
     inkscape:window-height="1387"
     inkscape:window-x="0"
     inkscape:window-y="25"
     inkscape:window-maximized="0"
     inkscape:current-layer="figure_1" />
  <metadata
     id="metadata1">
    <rdf:RDF>
      <cc:Work>
        <dc:type
           rdf:resource="http://purl.org/dc/dcmitype/StillImage" />
        <dc:date>2026-01-21T23:43:40.922752</dc:date>
        <dc:format>image/svg+xml</dc:format>
        <dc:creator>
          <cc:Agent>
            <dc:title>Matplotlib v3.10.8, https://matplotlib.org/</dc:title>
          </cc:Agent>
        </dc:creator>
      </cc:Work>
    </rdf:RDF>
  </metadata>
  <defs
     id="defs1">
    <style
       type="text/css"
       id="style1">*{stroke-linejoin: round; stroke-linecap: butt}</style>
  </defs>
  <g
     id="figure_1"
     transform="translate(-72.707727,-52.443)">
    <g
       id="matplotlib.axis_1" />
    <g
       id="matplotlib.axis_2" />
    <g
       id="line2d_1">
      <path
         d="m 73.832727,249.27162 3.903662,20.48573 1.951831,9.29022 1.301221,5.04588 0.65061,1.92816 0.65061,1.4956 0.650611,1.11931 0.650611,0.82766 0.65061,0.61432 1.30122,0.80999 1.301221,0.47256 1.951831,0.37177 2.602442,0.17836 3.903661,-0.0154 42.940282,-1.02645 31.22929,-0.27262 50.74762,-0.19493 89.78422,-0.0802 88.48299,0.0392 v 0"
         clip-path="url(#p4fb07a3a73)"
         style="fill:none;stroke:#4c72b0;stroke-width:2.25;stroke-linecap:round;stroke-opacity:0.2"
         id="path3" />
    </g>
    <g
       id="line2d_2">
      <path
         d="m 73.832727,247.68627 3.903662,20.50494 1.951831,9.38752 1.301221,5.25821 0.65061,2.0903 0.65061,1.6673 0.650611,1.27434 0.650611,0.95406 0.65061,0.71254 1.30122,0.94347 1.301221,0.55396 1.301221,0.33194 1.951831,0.26073 2.60244,0.11204 4.554274,-0.0684 27.97624,-0.79522 24.07258,-0.32104 37.08479,-0.2494 60.50677,-0.15841 112.55557,-0.0234 39.03662,0.0277 v 0"
         clip-path="url(#p4fb07a3a73)"
         style="fill:none;stroke:#4c72b0;stroke-width:2.25;stroke-linecap:round;stroke-opacity:0.2"
         id="path4" />
    </g>
    <g
       id="line2d_3">
      <path
         d="m 73.832727,246.04791 3.903662,20.52248 1.951831,9.47171 1.301221,5.44376 0.65061,2.24136 0.65061,1.83863 0.650611,1.43915 0.650611,1.09458 0.65061,0.82457 1.30122,1.09789 1.301221,0.64831 1.301221,0.39257 1.951831,0.31696 2.60244,0.15267 3.903664,-0.0233 43.59089,-1.05745 31.2293,-0.27988 50.09699,-0.19953 87.18178,-0.0832 89.78422,0.0418 v 0"
         clip-path="url(#p4fb07a3a73)"
         style="fill:none;stroke:#4c72b0;stroke-width:2.25;stroke-linecap:round;stroke-opacity:0.2"
         id="path5" />
    </g>
    <g
       id="line2d_4">
      <path
         d="m 73.832727,244.35476 3.903662,20.5303 1.951831,9.54543 1.301221,5.6057 1.30122,4.38542 0.650611,1.61075 0.650611,1.24872 0.65061,0.95163 0.65061,0.7235 1.30122,0.97982 1.301221,0.59106 1.301221,0.36344 1.951831,0.29678 2.602442,0.14353 4.554272,-0.0428 35.13296,-0.94086 26.67502,-0.30591 41.63907,-0.23297 69.6153,-0.1329 127.51961,0.0299 v 0"
         clip-path="url(#p4fb07a3a73)"
         style="fill:none;stroke:#4c72b0;stroke-width:2.25;stroke-linecap:round;stroke-opacity:0.2"
         id="path6" />
    </g>
    <g
       id="line2d_5">
      <path
         d="m 73.832727,242.60499 5.855493,30.05008 1.301221,5.75698 1.30122,4.68717 0.650611,1.79546 0.650611,1.42419 0.65061,1.10204 0.65061,0.84504 1.30122,1.15082 1.301221,0.69787 1.301221,0.43308 1.951831,0.3622 2.602442,0.19175 3.903662,0.007 9.10854,-0.30809 15.61465,-0.45223 20.81953,-0.35062 31.2293,-0.28348 48.79577,-0.20005 83.92874,-0.0862 91.73604,0.0445 v 0"
         clip-path="url(#p4fb07a3a73)"
         style="fill:none;stroke:#4c72b0;stroke-width:2.25;stroke-linecap:round;stroke-opacity:0.2"
         id="path7" />
    </g>
    <g
       id="line2d_6">
      <path
         d="m 73.832727,240.7967 1.301221,6.5857 3.903662,20.142 1.951831,9.04924 1.30122,4.9818 0.650611,1.99114 0.650611,1.62228 0.65061,1.2805 0.65061,0.99388 0.65061,0.76825 1.301221,1.06133 1.301221,0.65559 1.30122,0.41275 1.951832,0.34979 2.602441,0.18817 3.903662,0.008 9.10854,-0.30568 15.61465,-0.45766 20.16892,-0.34879 30.57869,-0.2894 47.49455,-0.20668 81.32629,-0.0932 96.29032,0.0449 v 0"
         clip-path="url(#p4fb07a3a73)"
         style="fill:none;stroke:#4c72b0;stroke-width:2.25;stroke-linecap:round;stroke-opacity:0.2"
         id="path8" />
    </g>
    <g
       id="line2d_7">
      <path
         d="m 73.832727,238.92794 1.301221,6.14059 3.903662,20.19768 1.951831,9.21423 1.30122,5.2632 1.301222,4.03323 0.65061,1.48987 0.65061,1.17638 0.65061,0.91829 1.301221,1.27632 1.301221,0.79173 1.30122,0.502 1.951832,0.43395 2.602441,0.25078 3.253052,0.0581 6.5061,-0.17469 19.51831,-0.60687 20.16892,-0.35544 29.92808,-0.29111 46.84395,-0.21235 78.72384,-0.097 99.54337,0.0451 v 0"
         clip-path="url(#p4fb07a3a73)"
         style="fill:none;stroke:#4c72b0;stroke-width:2.25;stroke-linecap:round;stroke-opacity:0.2"
         id="path9" />
    </g>
    <g
       id="line2d_8">
      <path
         d="m 73.832727,236.99669 1.301221,5.64438 5.855493,29.49398 1.30122,5.51834 1.301222,4.45454 0.65061,1.72352 0.65061,1.39262 0.65061,1.10341 0.65061,0.86725 1.301221,1.21993 1.301221,0.76888 1.301221,0.49407 1.95183,0.43315 2.602442,0.25597 3.253052,0.0652 5.85549,-0.14405 22.12076,-0.67902 21.47014,-0.36058 31.8799,-0.28989 48.14517,-0.19839 80.02506,-0.0844 91.08544,0.0488 v 0"
         clip-path="url(#p4fb07a3a73)"
         style="fill:none;stroke:#4c72b0;stroke-width:2.25;stroke-linecap:round;stroke-opacity:0.2"
         id="path10" />
    </g>
    <g
       id="line2d_9">
      <path
         d="m 73.832727,235.00086 1.301221,5.21231 1.301221,6.36476 3.253051,16.6592 1.951831,9.20967 1.301221,5.35769 1.301221,4.26718 0.65061,1.64236 0.65061,1.32969 0.65061,1.05926 1.301221,1.50301 1.301221,0.95135 1.301221,0.61415 1.301221,0.40136 1.951831,0.35472 2.60244,0.20608 3.903663,0.0326 7.807319,-0.23959 17.56648,-0.53614 20.16893,-0.36296 29.92807,-0.29946 45.54272,-0.21541 76.12141,-0.10158 101.4952,0.0471 v 0"
         clip-path="url(#p4fb07a3a73)"
         style="fill:none;stroke:#4c72b0;stroke-width:2.25;stroke-linecap:round;stroke-opacity:0.2"
         id="path11" />
    </g>
    <g
       id="line2d_10">
      <path
         d="m 73.832727,232.93828 1.301221,4.8341 1.301221,5.74782 4.554272,23.02164 1.951831,8.66798 1.301221,4.72683 1.30122,3.50665 0.65061,1.296 0.650611,1.03916 1.301221,1.49016 1.30122,0.95635 1.301221,0.62485 1.30122,0.41295 1.951832,0.37046 2.602442,0.2224 3.90366,0.0482 7.15671,-0.20518 18.8677,-0.57955 20.81954,-0.37273 30.57868,-0.30224 45.54273,-0.21152 75.47079,-0.0987 99.54337,0.0493 v 0"
         clip-path="url(#p4fb07a3a73)"
         style="fill:none;stroke:#4c72b0;stroke-width:2.25;stroke-linecap:round;stroke-opacity:0.2"
         id="path12" />
    </g>
    <g
       id="line2d_11">
      <path
         d="m 73.832727,230.80673 1.301221,4.50039 1.301221,5.19417 1.30122,6.34379 3.253052,16.40631 1.951831,8.96667 1.301221,5.14518 1.30122,4.07184 1.301221,2.86795 1.301221,1.88018 1.30122,1.21565 1.301221,0.79649 1.30122,0.52971 1.951832,0.48425 2.602442,0.31019 3.253051,0.11101 5.204879,-0.0848 33.18113,-0.91889 25.3738,-0.33556 37.08479,-0.25547 59.20554,-0.1597 90.43484,-0.0173 48.14515,0.0403 v 0"
         clip-path="url(#p4fb07a3a73)"
         style="fill:none;stroke:#4c72b0;stroke-width:2.25;stroke-linecap:round;stroke-opacity:0.2"
         id="path13" />
    </g>
    <g
       id="line2d_12">
      <path
         d="m 73.832727,228.60389 1.951831,6.49011 1.301221,5.11357 1.301221,6.24032 3.253051,16.30298 1.951832,8.89312 1.30122,5.10661 1.30122,4.06841 1.301221,2.90516 1.301221,1.93485 1.301221,1.26773 1.301221,0.83957 1.301219,0.56387 1.951832,0.52245 1.951832,0.28445 2.602441,0.16814 3.903659,0.0213 8.45793,-0.25254 18.21709,-0.5402 20.81954,-0.36867 30.57868,-0.30304 46.19334,-0.21442 73.51896,-0.0956 97.59154,0.0532 v 0"
         clip-path="url(#p4fb07a3a73)"
         style="fill:none;stroke:#4c72b0;stroke-width:2.25;stroke-linecap:round;stroke-opacity:0.2"
         id="path14" />
    </g>
    <g
       id="line2d_13">
      <path
         d="m 73.832727,226.3274 1.951831,6.05255 1.301221,4.63114 1.301221,5.4469 5.204883,25.46631 1.30122,5.49209 1.30122,4.65205 1.301221,3.55806 1.301221,2.48227 1.301221,1.65658 1.301221,1.10199 1.301219,0.74214 1.301222,0.50547 1.95183,0.47405 2.602441,0.3154 3.253051,0.1247 5.20488,-0.0665 39.68723,-1.02279 27.97625,-0.32015 41.63906,-0.23805 65.06103,-0.12523 117.10985,0.0453 v 0"
         clip-path="url(#p4fb07a3a73)"
         style="fill:none;stroke:#4c72b0;stroke-width:2.25;stroke-linecap:round;stroke-opacity:0.2"
         id="path15" />
    </g>
    <g
       id="line2d_14">
      <path
         d="m 73.832727,223.97477 1.951831,5.66457 1.301221,4.2323 1.301221,4.81325 1.30122,5.78462 3.253052,16.15441 1.951831,8.85866 1.30122,5.16733 1.301221,4.2412 1.301221,3.15718 1.301221,2.18501 1.301221,1.47134 1.301219,0.99362 1.301222,0.679 1.30122,0.46811 1.951832,0.44406 2.602441,0.29908 3.253049,0.11988 5.20489,-0.0636 41.63905,-1.04485 29.27747,-0.32009 42.94029,-0.22915 68.96468,-0.11445 107.3507,0.0518 v 0"
         clip-path="url(#p4fb07a3a73)"
         style="fill:none;stroke:#4c72b0;stroke-width:2.25;stroke-linecap:round;stroke-opacity:0.2"
         id="path16" />
    </g>
    <g
       id="line2d_15">
      <path
         d="m 73.832727,221.54348 1.951831,5.31827 1.951831,5.99202 1.301221,4.60647 1.301221,5.4433 4.554272,22.05814 1.951831,8.12031 1.301221,4.41091 1.30122,3.37656 1.301221,2.39496 1.30122,1.63867 1.301222,1.11748 1.30122,0.76941 1.30122,0.53484 1.951832,0.51456 2.60244,0.35887 3.25305,0.16338 4.55428,-0.0168 11.71098,-0.36159 18.21709,-0.47661 23.42198,-0.36594 33.83173,-0.28821 50.09699,-0.18831 83.92874,-0.0543 68.96468,0.0539 v 0"
         clip-path="url(#p4fb07a3a73)"
         style="fill:none;stroke:#4c72b0;stroke-width:2.25;stroke-linecap:round;stroke-opacity:0.2"
         id="path17" />
    </g>
    <g
       id="line2d_16">
      <path
         d="m 73.832727,219.03087 2.602442,6.77867 1.951831,5.75876 1.30122,4.37449 1.301221,5.07651 1.30122,6.19257 3.253052,15.61696 1.951831,8.27604 1.301221,4.62487 1.301221,3.65686 1.301221,2.67207 1.301219,1.86434 1.301222,1.28537 1.30122,0.89142 1.301222,0.6241 1.951829,0.6078 1.951831,0.35626 2.60244,0.24241 3.90366,0.0958 6.50611,-0.1242 29.92807,-0.80216 24.7232,-0.3509 36.43418,-0.27504 55.30187,-0.1703 81.32629,-0.0254 57.2537,0.0507 v 0"
         clip-path="url(#p4fb07a3a73)"
         style="fill:none;stroke:#4c72b0;stroke-width:2.25;stroke-linecap:round;stroke-opacity:0.2"
         id="path18" />
    </g>
    <g
       id="line2d_17">
      <path
         d="m 73.832727,216.43424 2.602442,6.38148 1.951831,5.29706 1.951831,6.03797 1.30122,4.70363 1.301221,5.65362 3.253051,15.66901 1.951832,8.46097 1.30122,4.87242 1.301221,3.9944 1.30122,3.02604 1.301222,2.16564 1.30122,1.51405 1.30122,1.05811 1.301222,0.74542 1.301219,0.52904 1.951831,0.52139 2.60244,0.37775 3.25305,0.18795 4.55428,0.01 9.75915,-0.27061 20.16892,-0.53494 23.42197,-0.3708 33.18113,-0.28985 50.09699,-0.19417 81.97691,-0.0546 68.96468,0.0574 v 0"
         clip-path="url(#p4fb07a3a73)"
         style="fill:none;stroke:#4c72b0;stroke-width:2.25;stroke-linecap:round;stroke-opacity:0.2"
         id="path19" />
    </g>
    <g
       id="line2d_18">
      <path
         d="m 73.832727,213.75078 2.602442,6.02432 2.602441,6.64555 1.951831,5.68382 1.30122,4.33919 1.301222,5.05809 1.95183,9.29717 2.602442,12.03594 1.951831,7.9175 1.301221,4.37109 1.301219,3.45443 1.301222,2.55672 1.30122,1.82304 1.301222,1.28669 1.30122,0.9119 1.301221,0.65118 1.951829,0.64922 1.95183,0.39314 2.60244,0.28249 3.90367,0.13858 5.85549,-0.0687 44.89211,-1.02712 31.2293,-0.31141 44.89212,-0.21364 67.01286,-0.0901 94.98909,0.0647 v 0"
         clip-path="url(#p4fb07a3a73)"
         style="fill:none;stroke:#4c72b0;stroke-width:2.25;stroke-linecap:round;stroke-opacity:0.2"
         id="path20" />
    </g>
    <g
       id="line2d_19">
      <path
         d="m 73.832727,210.97757 3.253052,7.18923 2.602441,6.32776 1.951831,5.32954 1.301221,3.99275 1.301221,4.53386 1.30122,5.4022 3.253052,15.33245 1.951831,8.26041 1.30122,4.76283 1.301222,3.94352 1.30122,3.04792 1.30122,2.23768 1.301222,1.6036 1.301219,1.14495 1.301222,0.82187 1.301219,0.59383 1.95183,0.59915 1.95183,0.36725 2.60244,0.26698 3.90366,0.13354 5.8555,-0.0634 47.49456,-1.04044 31.8799,-0.29901 47.49455,-0.20569 76.77203,-0.0705 77.42261,0.065 v 0"
         clip-path="url(#p4fb07a3a73)"
         style="fill:none;stroke:#4c72b0;stroke-width:2.25;stroke-linecap:round;stroke-opacity:0.2"
         id="path21" />
    </g>
    <g
       id="line2d_20">
      <path
         d="m 73.832727,208.11163 3.903662,8.22869 2.602442,6.0049 1.95183,4.98309 1.951832,5.64716 1.30122,4.34479 1.301221,5.10666 4.554273,20.76368 1.951831,7.46233 1.30122,4.05388 1.30122,3.19458 1.301222,2.38911 1.301219,1.73703 1.301222,1.2534 1.301219,0.90731 1.30122,0.66071 1.95183,0.67389 1.95183,0.42049 2.60245,0.31618 3.25305,0.16509 5.20488,0.006 11.71099,-0.30265 21.47014,-0.50306 26.02441,-0.36041 36.43418,-0.26946 52.69944,-0.16069 77.42263,-0.0186 55.30186,0.0565 v 0"
         clip-path="url(#p4fb07a3a73)"
         style="fill:none;stroke:#4c72b0;stroke-width:2.25;stroke-linecap:round;stroke-opacity:0.2"
         id="path22" />
    </g>
    <g
       id="line2d_21">
      <path
         d="m 73.832727,205.14985 3.903662,7.79525 2.602442,5.57128 2.602441,6.11707 1.951831,5.16614 1.951831,5.9849 1.301221,4.73846 1.30122,5.75627 2.602441,11.90613 1.951832,8.01535 1.30122,4.61608 1.301222,3.84779 1.30122,3.02185 1.301221,2.26841 1.301219,1.66377 1.30122,1.21331 1.30122,0.88754 1.30122,0.65268 1.95183,0.6732 1.95184,0.42605 2.60244,0.32664 3.25305,0.17839 5.20488,0.0235 10.40976,-0.24671 23.42198,-0.54188 26.02441,-0.35374 37.08479,-0.26865 55.30187,-0.15871 91.08545,10e-6 35.78356,0.0473 v 0"
         clip-path="url(#p4fb07a3a73)"
         style="fill:none;stroke:#4c72b0;stroke-width:2.25;stroke-linecap:round;stroke-opacity:0.2"
         id="path23" />
    </g>
    <g
       id="line2d_22">
      <path
         d="m 73.832727,202.08902 4.554273,8.67508 3.253051,6.65509 2.602442,5.85953 1.95183,4.90334 1.951832,5.59724 1.30122,4.3353 1.301221,5.13065 3.903662,17.45498 1.951832,7.4602 1.30122,4.1491 1.301221,3.36435 1.301219,2.59574 1.30122,1.94047 1.30122,1.43192 1.30122,1.05563 1.30122,0.78135 1.95183,0.81329 1.95184,0.52298 2.60244,0.41363 3.25305,0.24577 4.55427,0.0824 7.80733,-0.12884 33.83174,-0.73911 29.27746,-0.33514 40.98845,-0.23564 58.55493,-0.11352 94.9891,0.0464 13.0122,0.0181 v 0"
         clip-path="url(#p4fb07a3a73)"
         style="fill:none;stroke:#4c72b0;stroke-width:2.25;stroke-linecap:round;stroke-opacity:0.2"
         id="path24" />
    </g>
    <g
       id="line2d_23">
      <path
         d="m 73.832727,198.92584 5.855493,10.67707 3.253052,6.37695 2.602441,5.57257 1.951831,4.61395 1.951831,5.18432 1.301221,3.92859 1.30122,4.50728 1.301222,5.4373 2.60244,11.62382 1.951832,7.80512 1.301221,4.50967 1.301219,3.79849 1.30122,3.03806 1.30122,2.33322 1.30122,1.75109 1.30122,1.3037 1.30122,0.97133 1.30123,0.72653 1.95183,0.76509 1.95183,0.49845 2.60244,0.39986 3.25305,0.24302 4.55427,0.0884 7.80733,-0.1148 37.08479,-0.7613 30.57868,-0.31877 44.89212,-0.22447 69.61531,-0.0893 85.88054,0.0763 v 0"
         clip-path="url(#p4fb07a3a73)"
         style="fill:none;stroke:#4c72b0;stroke-width:2.25;stroke-linecap:round;stroke-opacity:0.2"
         id="path25" />
    </g>
    <g
       id="line2d_24">
      <path
         d="m 73.832727,195.65688 7.156714,12.46915 3.253052,6.07796 2.602441,5.26539 2.602441,5.84006 1.951832,4.96404 1.951831,5.76834 1.30122,4.56471 1.30122,5.52454 2.602441,11.34306 1.951831,7.52119 1.30122,4.29576 1.30122,3.59239 1.30122,2.86711 1.30122,2.2101 1.30122,1.67169 1.30123,1.25655 1.30122,0.94534 1.30122,0.7137 1.95183,0.75975 1.95183,0.50147 2.60244,0.40916 3.25305,0.25661 4.55427,0.1056 7.80733,-0.0941 42.28967,-0.80166 33.18113,-0.29958 46.84394,-0.19173 71.56715,-0.0548 71.56711,0.0727 v 0"
         clip-path="url(#p4fb07a3a73)"
         style="fill:none;stroke:#4c72b0;stroke-width:2.25;stroke-linecap:round;stroke-opacity:0.2"
         id="path26" />
    </g>
    <g
       id="line2d_25">
      <path
         d="m 73.832727,192.27859 9.108545,15.18281 3.253051,5.84216 2.602442,5.04599 2.602442,5.56242 1.951831,4.68179 1.95183,5.35696 1.301222,4.14466 1.30122,4.8782 3.25305,14.01298 1.95183,7.37889 1.30122,4.21451 1.30122,3.53672 1.30122,2.84248 1.30123,2.21181 1.30122,1.68997 1.30122,1.28269 1.30122,0.97372 1.30122,0.74129 1.95183,0.79706 1.95183,0.5331 2.60244,0.44306 3.25305,0.28847 4.55428,0.13605 7.15671,-0.0533 57.2537,-0.93414 38.38602,-0.24543 55.30187,-0.12934 93.03727,0.0362 19.51831,0.0303 v 0"
         clip-path="url(#p4fb07a3a73)"
         style="fill:none;stroke:#4c72b0;stroke-width:2.25;stroke-linecap:round;stroke-opacity:0.2"
         id="path27" />
    </g>
    <g
       id="line2d_26">
      <path
         d="m 73.832727,188.78734 12.361596,19.78064 3.253052,5.7401 2.602441,4.99377 2.602442,5.54147 1.951832,4.69478 1.951829,5.41042 1.301222,4.22031 1.301219,5.01938 2.60244,11.0921 1.95183,7.39703 1.30122,4.27343 1.30123,3.63436 1.30122,2.96602 1.30122,2.34251 1.30122,1.81287 1.30122,1.39032 1.30122,1.06453 1.30122,0.81668 1.95183,0.88618 1.95183,0.60017 2.60244,0.50839 3.25306,0.34397 3.90365,0.17149 5.8555,0.0213 13.01221,-0.23908 27.97624,-0.48094 31.87991,-0.3055 44.89211,-0.20162 69.6153,-0.0668 75.47079,0.0793 v 0"
         clip-path="url(#p4fb07a3a73)"
         style="fill:none;stroke:#4c72b0;stroke-width:2.25;stroke-linecap:round;stroke-opacity:0.2"
         id="path28" />
    </g>
    <g
       id="line2d_27">
      <path
         d="m 73.832727,185.17934 8.457934,12.70357 5.204883,8.03396 3.903663,6.47076 2.602441,4.68246 2.602442,5.13271 1.951829,4.27514 1.951831,4.80946 1.30122,3.63253 1.30122,4.13304 1.30122,4.89575 2.60244,10.88023 1.95184,7.24189 1.30122,4.18088 1.30121,3.56409 1.30123,2.92492 1.30122,2.32879 1.30122,1.81909 1.30122,1.40824 1.30122,1.08781 1.30122,0.84149 1.95183,0.92209 1.95183,0.63212 2.60245,0.54394 3.25305,0.37857 3.90366,0.20161 5.85549,0.0507 11.71099,-0.18251 31.8799,-0.51926 34.48236,-0.29903 49.44637,-0.18488 67.01288,-0.0315 65.06101,0.0757 v 0"
         clip-path="url(#p4fb07a3a73)"
         style="fill:none;stroke:#4c72b0;stroke-width:2.25;stroke-linecap:round;stroke-opacity:0.2"
         id="path29" />
    </g>
    <g
       id="line2d_28">
      <path
         d="m 73.832727,181.45068 5.855493,8.43237 9.108545,13.09296 3.903661,6.00737 3.253052,5.40076 2.602441,4.71384 2.602441,5.2297 1.95183,4.41369 1.95183,5.04339 1.30122,3.87994 1.30122,4.51583 4.55428,17.94541 1.30122,4.25261 1.30122,3.67416 1.30122,3.06177 1.30122,2.47481 1.30122,1.95889 1.30122,1.53313 1.30122,1.19501 1.30122,0.93157 1.95184,1.02972 1.95182,0.71395 1.95183,0.49552 2.60245,0.43039 3.25305,0.30091 4.55427,0.17076 7.15671,0.002 20.16892,-0.34105 29.27747,-0.37833 38.38601,-0.25737 52.04882,-0.12974 88.48302,0.0306 24.07256,0.0412 v 0"
         clip-path="url(#p4fb07a3a73)"
         style="fill:none;stroke:#4c72b0;stroke-width:2.25;stroke-linecap:round;stroke-opacity:0.2"
         id="path30" />
    </g>
    <g
       id="line2d_29">
      <path
         d="m 73.832727,177.59733 5.204883,7.20944 13.662816,18.62564 3.903664,5.8025 3.253051,5.23539 2.602439,4.5768 2.60244,5.07764 1.95183,4.27832 1.95184,4.87058 1.30122,3.72492 1.30121,4.29732 1.95184,7.792 1.95183,7.49182 1.95183,6.52708 1.30122,3.6776 1.30122,3.09232 1.30122,2.52579 1.30122,2.02065 1.30122,1.59721 1.30122,1.25614 1.30122,0.98721 1.30123,0.77692 1.95182,0.86877 1.95184,0.61016 2.60244,0.54017 3.25305,0.3922 3.90366,0.22683 5.8555,0.0881 11.06037,-0.11908 40.33784,-0.54849 39.68724,-0.25661 54.65127,-0.12046 83.27813,0.0408 22.12072,0.0391 v 0"
         clip-path="url(#p4fb07a3a73)"
         style="fill:none;stroke:#4c72b0;stroke-width:2.25;stroke-linecap:round;stroke-opacity:0.2"
         id="path31" />
    </g>
    <g
       id="line2d_30">
      <path
         d="m 73.832727,173.61511 4.554273,6.08753 7.156713,9.11987 7.807325,9.99574 4.554272,6.17199 3.90366,5.69319 3.25305,5.18525 2.60244,4.56963 2.60245,5.11108 1.95183,4.34369 1.95183,4.99403 1.30122,3.86317 1.30122,4.51844 2.60244,10.20798 1.95183,6.74788 1.30122,3.88843 1.30122,3.33723 1.30122,2.7808 1.30122,2.26353 1.30123,1.81408 1.30122,1.44187 1.30122,1.14258 1.30122,0.90554 1.95183,1.02084 1.95183,0.72451 2.60244,0.65091 2.60244,0.4105 3.25305,0.29954 4.55428,0.18703 7.15671,0.0361 16.91587,-0.22536 33.18112,-0.38615 41.63906,-0.23733 63.75982,-0.10174 87.18177,0.0934 v 0"
         clip-path="url(#p4fb07a3a73)"
         style="fill:none;stroke:#4c72b0;stroke-width:2.25;stroke-linecap:round;stroke-opacity:0.2"
         id="path32" />
    </g>
    <g
       id="line2d_31">
      <path
         d="m 73.832727,169.49973 4.554273,5.86568 5.855493,7.1192 13.662817,16.41476 4.55427,5.88943 3.90366,5.44339 3.25306,4.9546 2.60244,4.35419 2.60244,4.84415 1.95183,4.08314 1.95183,4.6374 1.30122,3.5284 1.30122,4.03625 1.30122,4.79373 1.95184,7.44015 1.95182,6.59136 1.30123,3.79985 1.30122,3.27069 1.30122,2.73982 1.30122,2.24614 1.30122,1.81487 1.30122,1.45465 1.30122,1.16212 1.30122,0.92814 1.95183,1.05587 1.95183,0.75771 1.95183,0.54481 2.60245,0.49513 3.25305,0.37328 4.55427,0.25275 6.5061,0.0913 12.3616,-0.10944 44.2415,-0.47818 44.2415,-0.20381 60.50677,-0.0625 77.42261,0.093 v 0"
         clip-path="url(#p4fb07a3a73)"
         style="fill:none;stroke:#4c72b0;stroke-width:2.25;stroke-linecap:round;stroke-opacity:0.2"
         id="path33" />
    </g>
    <g
       id="line2d_32">
      <path
         d="m 73.832727,165.24673 3.903662,4.8757 5.204883,6.09875 7.807324,8.72447 9.759154,10.95589 5.20488,6.211 3.90367,4.99458 3.25305,4.48896 3.25305,4.90717 2.60244,4.34265 2.60244,4.86492 1.95183,4.13003 1.95183,4.72793 1.30122,3.62898 1.30123,4.19373 3.90366,14.11483 1.95183,5.78249 1.30122,3.22857 1.30122,2.72142 1.30122,2.24821 1.30122,1.83172 1.30122,1.48047 1.30122,1.19231 1.30122,0.95955 1.95184,1.10125 1.95182,0.79862 1.95184,0.58064 2.60244,0.5354 3.25305,0.41276 3.90366,0.26515 5.85549,0.14719 9.75916,-0.0218 76.12141,-0.6135 61.80798,-0.10116 86.53116,0.0987 v 0"
         clip-path="url(#p4fb07a3a73)"
         style="fill:none;stroke:#4c72b0;stroke-width:2.25;stroke-linecap:round;stroke-opacity:0.2"
         id="path34" />
    </g>
    <g
       id="line2d_33">
      <path
         d="m 73.832727,160.8515 3.903662,4.71259 4.554272,5.13288 5.855494,6.24173 20.168925,21.16987 4.55427,5.26603 3.90366,4.86216 3.25305,4.39858 2.60244,3.82617 2.60244,4.19113 2.60245,4.68686 1.95182,3.96432 1.95184,4.51102 1.30122,3.43327 1.30122,3.92202 1.30122,4.62827 1.95183,6.99017 1.95183,6.11952 1.30122,3.50484 1.30122,3.01634 1.30122,2.53971 1.30123,2.10254 1.30121,1.72108 1.30123,1.39995 1.30122,1.13564 1.30121,0.92089 1.95184,1.06673 1.95183,0.78215 2.60244,0.73041 2.60244,0.48454 3.25305,0.37989 4.55427,0.27623 6.50611,0.13036 11.71099,-0.0451 62.45858,-0.47291 59.85615,-0.11409 80.02508,0.0785 11.06036,0.022 v 0"
         clip-path="url(#p4fb07a3a73)"
         style="fill:none;stroke:#4c72b0;stroke-width:2.25;stroke-linecap:round;stroke-opacity:0.2"
         id="path35" />
    </g>
    <g
       id="line2d_34">
      <path
         d="m 73.832727,156.30928 3.903662,4.56011 4.554272,4.92852 5.204883,5.28635 7.156714,6.92745 14.964042,14.37442 5.20488,5.32032 4.55427,4.95878 3.90366,4.57659 3.25305,4.12922 3.25305,4.51638 2.60245,3.98548 2.60244,4.43492 1.95183,3.72393 1.95183,4.19371 1.95183,4.86233 1.30122,3.78479 1.30122,4.44069 1.95184,6.82268 1.95183,5.9644 1.30122,3.42045 1.30121,2.95348 1.30123,2.49971 1.30121,2.08301 1.30123,1.71756 1.30122,1.40759 1.30122,1.15035 1.95183,1.34286 1.95183,0.99305 1.95183,0.73639 2.60245,0.69627 2.60244,0.46863 3.25305,0.3743 4.55427,0.28136 6.50611,0.14468 11.06037,-0.0134 77.42264,-0.45262 64.41041,-0.0345 63.7598,0.0922 v 0"
         clip-path="url(#p4fb07a3a73)"
         style="fill:none;stroke:#4c72b0;stroke-width:2.25;stroke-linecap:round;stroke-opacity:0.2"
         id="path36" />
    </g>
    <g
       id="line2d_35">
      <path
         d="m 73.832727,151.61519 3.903662,4.41734 3.903662,4.08446 4.554272,4.46175 5.855493,5.41194 8.457934,7.46375 13.66282,12.02086 5.85549,5.44915 5.20488,5.16126 3.90367,4.15473 3.90366,4.4884 3.25305,4.07885 3.25305,4.49062 2.60244,3.9876 2.60245,4.46461 1.95182,3.77252 1.95184,4.27729 1.95183,5.00428 1.30122,3.93725 3.25305,10.89747 1.95183,5.47301 1.30122,3.09772 1.30122,2.65619 1.30122,2.24095 1.30122,1.86829 1.30122,1.54579 1.30123,1.27367 1.30121,1.04775 1.95184,1.23395 1.95183,0.92268 1.95183,0.69176 2.60244,0.66238 3.25305,0.5407 3.90367,0.38224 5.20488,0.25169 7.80732,0.11226 15.61465,-0.0607 54.00066,-0.28643 55.95248,-0.0626 78.07323,0.10464 v 0"
         clip-path="url(#p4fb07a3a73)"
         style="fill:none;stroke:#4c72b0;stroke-width:2.25;stroke-linecap:round;stroke-opacity:0.2"
         id="path37" />
    </g>
    <g
       id="line2d_36">
      <path
         d="m 73.832727,146.76411 3.253052,3.59646 3.903662,3.98682 4.554272,4.3103 5.204883,4.6037 6.506104,5.43123 9.75915,7.79744 13.01221,10.41287 6.5061,5.4942 5.20489,4.66923 4.55427,4.37326 3.90366,4.0362 3.90366,4.38792 3.25306,4.00855 2.60243,3.50669 2.60244,3.85131 2.60245,4.30427 1.95183,3.62521 1.95183,4.0893 1.95183,4.74207 1.30122,3.68434 4.55427,14.30141 1.30123,3.30809 1.30121,2.88168 1.30123,2.46771 1.30122,2.08476 1.30122,1.74441 1.30122,1.45089 1.30122,1.20291 1.95183,1.42812 1.95183,1.07724 1.95184,0.81457 2.60244,0.7884 2.60244,0.54644 3.25305,0.45315 3.90366,0.32595 5.85549,0.23677 9.10854,0.0955 21.47015,-0.089 51.39822,-0.18786 74.8202,7.2e-4 41.63903,0.0804 v 0"
         clip-path="url(#p4fb07a3a73)"
         style="fill:none;stroke:#4c72b0;stroke-width:2.25;stroke-linecap:round;stroke-opacity:0.2"
         id="path38" />
    </g>
    <g
       id="line2d_37">
      <path
         d="m 73.832727,141.75078 3.253052,3.49263 3.903662,3.8504 4.554272,4.13341 5.204883,4.37548 5.855494,4.60491 7.15671,5.32723 11.71099,8.3832 11.71099,8.4562 7.15671,5.44227 5.85549,4.73701 5.20489,4.52057 4.55426,4.27954 3.90367,3.98506 3.25305,3.60835 3.25305,3.94354 2.60244,3.46188 2.60244,3.81325 2.60245,4.27413 1.95183,3.60857 1.95183,4.0788 1.95183,4.7391 1.30122,3.68793 3.25305,10.17006 1.95183,5.09214 1.30123,2.88668 1.30121,2.48908 1.30123,2.11865 1.30121,1.78636 1.30123,1.49693 1.30122,1.25004 1.95183,1.49642 1.95182,1.13942 1.95184,0.86935 2.60244,0.85027 2.60244,0.59717 3.25305,0.50391 3.90366,0.37256 5.20489,0.26334 7.80732,0.14707 14.96403,0.007 77.42264,-0.18435 83.92875,0.10694 2.60241,0.006 v 0"
         clip-path="url(#p4fb07a3a73)"
         style="fill:none;stroke:#4c72b0;stroke-width:2.25;stroke-linecap:round;stroke-opacity:0.2"
         id="path39" />
    </g>
    <g
       id="line2d_38">
      <path
         d="m 73.832727,136.56983 3.253052,3.395 3.903662,3.72299 3.903662,3.42321 4.554272,3.70248 5.204883,3.93732 5.855492,4.15147 7.15671,4.79748 10.40977,6.67539 17.56648,11.22986 7.80732,5.28085 6.5061,4.68322 5.20489,4.00864 4.55427,3.75997 4.55427,4.06284 3.90367,3.78908 3.25305,3.43163 3.25305,3.74539 2.60244,3.27906 2.60244,3.59722 2.60244,4.00599 1.95184,3.35303 1.95182,3.74718 1.95184,4.27847 1.30121,3.25596 1.30123,3.70557 2.60244,7.91692 1.95183,5.02404 1.30122,2.86304 1.30122,2.48242 1.30122,2.12641 1.30122,1.80512 1.30123,1.52311 1.30121,1.28056 1.95184,1.54545 1.95183,1.18794 1.95182,0.91462 1.95184,0.70581 2.60245,0.69917 3.25305,0.59864 3.90365,0.45316 5.20488,0.33505 7.15673,0.19879 12.36158,0.0706 63.75982,-0.10798 76.1214,0.0847 13.0122,0.0305 v 0"
         clip-path="url(#p4fb07a3a73)"
         style="fill:none;stroke:#4c72b0;stroke-width:2.25;stroke-linecap:round;stroke-opacity:0.2"
         id="path40" />
    </g>
    <g
       id="line2d_39">
      <path
         d="m 73.832727,131.21562 3.253052,3.30306 3.903662,3.6038 3.903662,3.29387 4.554272,3.53796 5.204883,3.72983 5.855492,3.89072 6.5061,4.0427 7.80733,4.5824 11.06038,6.20966 20.16891,11.28956 8.45794,5.02127 6.5061,4.09799 5.85549,3.93087 5.20489,3.74565 4.55427,3.5231 4.55427,3.81014 3.90367,3.55162 3.90365,3.88318 3.25305,3.55339 3.25306,3.92049 2.60244,3.47253 2.60244,3.85801 1.95183,3.21753 1.95184,3.57812 1.95182,4.0541 1.95184,4.71884 1.30122,3.67368 1.95183,5.77511 1.95184,4.9859 1.3012,2.85807 1.30123,2.49268 1.30122,2.1491 1.30123,1.8368 1.30122,1.56047 1.30121,1.32073 1.95184,1.60661 1.95183,1.24636 1.95183,0.96815 1.95182,0.75374 2.60245,0.75419 3.25305,0.65408 3.90366,0.50417 4.55427,0.34926 6.50611,0.25204 9.75915,0.12991 23.42198,0.0122 86.53119,0.0255 28.62682,0.0678 v 0"
         clip-path="url(#p4fb07a3a73)"
         style="fill:none;stroke:#4c72b0;stroke-width:2.25;stroke-linecap:round;stroke-opacity:0.2"
         id="path41" />
    </g>
    <g
       id="line2d_40">
      <path
         d="m 73.832727,125.68235 3.253052,3.21644 3.253052,2.93431 3.903662,3.22142 4.554272,3.43015 4.554273,3.14928 5.204881,3.32643 5.855491,3.46894 6.50611,3.59497 7.80732,4.05209 9.75915,4.80401 37.08479,17.98789 7.80733,4.16641 7.15671,4.07983 5.85549,3.58164 5.20489,3.41586 5.20488,3.68619 4.55428,3.50049 3.90366,3.25143 3.90365,3.535 3.25306,3.21036 3.25306,3.50779 3.25305,3.88001 2.60243,3.44295 2.60245,3.83002 1.95182,3.19664 1.95183,3.5558 1.95184,4.02808 1.95183,4.68341 1.95183,5.53907 1.95183,5.19348 1.95183,4.39372 1.30122,2.48889 1.30122,2.15812 1.30123,1.8559 1.30122,1.58665 1.95183,1.94919 1.95183,1.52658 1.95182,1.19509 1.95183,0.93702 2.60245,0.94522 2.60245,0.68839 3.25305,0.60625 3.90365,0.47587 5.20488,0.372 7.15673,0.24998 11.06037,0.13448 26.67502,0.0327 85.22994,0.12502 v 0"
         clip-path="url(#p4fb07a3a73)"
         style="fill:none;stroke:#4c72b0;stroke-width:2.25;stroke-linecap:round;stroke-opacity:0.2"
         id="path42" />
    </g>
    <g
       id="line2d_41">
      <path
         d="m 73.832727,119.96405 3.253052,3.13469 3.253052,2.84752 3.903662,3.11034 3.903662,2.84018 4.554271,3.03707 5.204884,3.17568 5.20488,2.92224 5.8555,3.04567 7.15671,3.45092 7.80732,3.50877 9.75916,4.12603 13.66282,5.50177 26.02441,10.43914 10.40976,4.44481 8.45793,3.84018 7.80733,3.79199 6.5061,3.39423 5.8555,3.27912 5.85549,3.54005 5.20489,3.41543 4.55426,3.24003 4.55428,3.5247 3.90367,3.29605 3.90365,3.60845 3.25305,3.30048 3.25306,3.63155 2.60244,3.2003 2.60244,3.52872 2.60244,3.94611 1.95183,3.3119 1.95183,3.7064 1.95183,4.23205 1.30122,3.21544 3.25305,8.66537 1.95183,4.29378 1.30122,2.44133 1.30123,2.12563 1.30122,1.83688 1.95183,2.28139 1.95183,1.80593 1.95184,1.42603 1.95183,1.1264 1.95182,0.89132 2.60245,0.90882 2.60243,0.67031 3.25306,0.59898 3.90367,0.47934 5.20488,0.38471 7.1567,0.2675 11.06038,0.1599 25.37381,0.0842 56.60308,0.11056 v 0"
         clip-path="url(#p4fb07a3a73)"
         style="fill:none;stroke:#4c72b0;stroke-width:2.25;stroke-linecap:round;stroke-opacity:0.2"
         id="path43" />
    </g>
    <g
       id="line2d_42">
      <path
         d="m 73.832727,114.05453 3.253052,3.05748 3.253052,2.76585 3.903662,3.00647 3.903662,2.72981 4.554271,2.89978 4.554274,2.64704 5.20488,2.77129 5.8555,2.85331 6.5061,2.90625 7.15671,2.94317 8.45794,3.21568 9.75915,3.45279 12.36159,4.11528 22.77137,7.277 17.56648,5.72853 11.71099,4.04574 9.75915,3.59387 8.45793,3.33443 7.80733,3.30729 7.15671,3.26621 6.5061,3.20827 5.8555,3.12218 5.8555,3.38746 5.20488,3.27682 4.55427,3.11274 4.55428,3.38913 3.90365,3.17003 3.90366,3.46668 3.25305,3.16315 3.25305,3.46815 3.25305,3.84619 2.60245,3.41849 2.60245,3.80545 1.95183,3.1756 1.95182,3.52885 1.95183,3.98834 1.95183,4.61687 2.60245,6.74171 1.95182,4.27093 1.95183,3.54598 1.95184,2.88722 1.95183,2.32096 1.95183,1.85287 1.95183,1.47533 1.95182,1.17487 1.95185,0.93717 2.60243,0.96437 2.60245,0.71902 3.25305,0.65074 3.90366,0.52967 4.55427,0.39364 6.5061,0.31724 9.75916,0.21122 18.8677,0.12576 27.32562,0.0856 v 0"
         clip-path="url(#p4fb07a3a73)"
         style="fill:none;stroke:#4c72b0;stroke-width:2.25;stroke-linecap:round;stroke-opacity:0.2"
         id="path44" />
    </g>
    <g
       id="line2d_43">
      <path
         d="m 73.832727,107.94736 3.253052,2.98452 3.253052,2.68897 3.903662,2.90913 3.903662,2.6268 4.554271,2.77249 4.554274,2.51188 5.20488,2.60697 5.8555,2.65545 5.85549,2.41428 6.5061,2.45158 7.15672,2.46886 8.45793,2.67373 9.75915,2.8335 11.06038,2.97539 14.31343,3.6107 31.22929,7.56273 18.21709,4.57265 13.01221,3.48788 11.06038,3.17608 9.75915,3.0171 9.10854,3.03545 8.45794,3.04768 7.80733,3.05265 7.15671,3.03672 6.5061,2.99223 6.5061,3.25088 5.8555,3.18706 5.20488,3.08134 5.20488,3.36043 4.55428,3.21255 3.90365,2.994 3.90367,3.25794 3.90366,3.57537 3.25305,3.27414 3.25305,3.60319 2.60245,3.17334 2.60243,3.49338 2.60245,3.89578 1.95183,3.25673 1.95184,3.62593 1.95181,4.10744 1.95185,4.76841 1.95184,4.74607 1.95181,4.02482 1.95184,3.33908 1.95182,2.72534 1.95184,2.20181 1.95184,1.76952 1.95182,1.41992 1.95184,1.13993 1.95181,0.91703 2.60245,0.95305 2.60245,0.71877 3.25305,0.6592 3.90365,0.5457 4.55429,0.41462 6.50611,0.34532 2.60241,0.0879 v 0"
         clip-path="url(#p4fb07a3a73)"
         style="fill:none;stroke:#4c72b0;stroke-width:2.25;stroke-linecap:round;stroke-opacity:0.2"
         id="path45" />
    </g>
    <g
       id="line2d_44">
      <path
         d="m 73.832727,101.63599 3.253052,2.91551 3.253052,2.61657 3.903662,2.81775 3.903662,2.5306 4.554271,2.65411 4.554274,2.387 5.20488,2.45604 5.20488,2.21338 5.8555,2.24827 6.5061,2.2483 7.15672,2.22321 7.80732,2.18188 8.45793,2.13278 9.75916,2.22491 11.06037,2.28739 13.01221,2.45969 16.91587,2.95594 35.13295,5.82976 22.12076,3.80299 16.91586,3.13674 13.66283,2.75179 12.36159,2.70941 11.71099,2.79294 10.40976,2.70996 9.75916,2.7753 9.10855,2.82614 8.45793,2.85811 7.80732,2.86802 7.15671,2.85265 6.5061,2.8114 6.50611,3.05401 5.8555,2.98928 5.8555,3.25469 5.20486,3.15342 4.55429,2.99499 4.55426,3.25324 0.6506,0.48866 v 0"
         clip-path="url(#p4fb07a3a73)"
         style="fill:none;stroke:#4c72b0;stroke-width:2.25;stroke-linecap:round;stroke-opacity:0.2"
         id="path46" />
    </g>
    <g
       id="line2d_45">
      <path
         d="m 73.832727,95.113555 3.253052,2.850169 3.253052,2.548216 3.903662,2.73182 3.903662,2.44052 3.903661,2.19832 4.554274,2.30709 4.55427,2.07223 5.20488,2.12536 5.8555,2.13001 5.85549,1.89759 6.50611,1.8797 7.15671,1.83489 7.80732,1.77055 8.45794,1.69373 9.75915,1.71845 10.40977,1.60987 12.36159,1.67856 14.31343,1.70664 17.56648,1.85418 24.72319,2.35357 53.35005,4.99807 22.12076,2.33866 17.56648,2.08411 16.26525,2.15307 14.96404,2.19603 13.66281,2.23292 12.3616,2.24231 11.06036,2.20498 v 0"
         clip-path="url(#p4fb07a3a73)"
         style="fill:none;stroke:#4c72b0;stroke-width:2.25;stroke-linecap:round;stroke-opacity:0.2"
         id="path47" />
    </g>
    <g
       id="line2d_46">
      <path
         d="m 73.832727,88.372992 3.253052,2.788233 3.253052,2.483595 3.253052,2.231211 3.903661,2.401359 3.903663,2.14842 4.554271,2.23764 4.554272,1.99236 5.20488,2.02295 5.20489,1.79249 5.85549,1.78281 6.5061,1.73488 7.15672,1.65663 7.80732,1.55557 8.45793,1.43853 9.10855,1.31139 9.75915,1.17958 11.06038,1.10675 12.36159,1.00417 13.66282,0.8846 15.61465,0.79024 18.8677,0.72946 25.37381,0.73472 100.19398,2.60434 20.81955,0.83574 14.96401,0.72733 v 0"
         clip-path="url(#p4fb07a3a73)"
         style="fill:none;stroke:#4c72b0;stroke-width:2.25;stroke-linecap:round;stroke-opacity:0.2"
         id="path48" />
    </g>
    <g
       id="line2d_47">
      <path
         d="m 73.832727,81.407031 3.253052,2.729491 3.253052,2.422596 3.253052,2.167885 3.903661,2.322559 3.903663,2.066485 4.554271,2.138386 4.554272,1.889054 5.20488,1.900225 5.20489,1.664848 5.85549,1.63345 6.5061,1.56189 6.5061,1.33556 7.15672,1.24693 7.80733,1.13484 8.45793,1.00492 9.10854,0.86227 10.40977,0.75199 11.06037,0.57252 12.3616,0.41415 13.66282,0.23378 15.61465,0.037 17.56648,-0.18412 21.47014,-0.45768 27.97624,-0.85033 44.89212,-1.64172 61.15735,-2.15984 v 0"
         clip-path="url(#p4fb07a3a73)"
         style="fill:none;stroke:#4c72b0;stroke-width:2.25;stroke-linecap:round;stroke-opacity:0.2"
         id="path49" />
    </g>
    <g
       id="line2d_48">
      <path
         d="m 73.832727,74.208105 3.253052,2.673788 3.253052,2.364792 3.253052,2.108106 3.903661,2.248274 3.903663,1.989601 4.554271,2.045419 4.554272,1.79285 5.20488,1.786235 5.20489,1.546854 5.85549,1.495977 5.85549,1.274199 6.50611,1.192915 7.15671,1.080173 7.80732,0.942106 8.45793,0.784493 9.10856,0.612343 9.75915,0.43035 10.40977,0.24235 11.71098,0.0498 13.0122,-0.17452 14.31343,-0.42131 15.61466,-0.677417 18.21708,-1.016193 20.81954,-1.390901 25.37379,-1.916608 36.43419,-3.015093 61.15735,-5.26436 v 0"
         clip-path="url(#p4fb07a3a73)"
         style="fill:none;stroke:#4c72b0;stroke-width:2.25;stroke-linecap:round;stroke-opacity:0.2"
         id="path50" />
    </g>
    <g
       id="line2d_49">
      <path
         d="m 73.832727,66.768451 3.253052,2.620866 3.253052,2.310011 3.253052,2.051664 3.903661,2.178304 3.903663,1.917346 4.554271,1.958356 4.554272,1.702935 5.20488,1.680166 5.20489,1.43732 5.85549,1.368898 5.85549,1.143174 6.50611,1.04298 7.15671,0.910152 7.80732,0.750864 8.45793,0.570791 9.10856,0.37512 9.75915,0.168317 10.40977,-0.04547 11.71098,-0.283841 13.0122,-0.55661 13.66283,-0.811124 15.61464,-1.15531 17.56648,-1.533795 19.51831,-1.932904 23.42198,-2.543117 27.32562,-3.194185 38.38601,-4.701944 36.43417,-4.531767 v 0"
         clip-path="url(#p4fb07a3a73)"
         style="fill:none;stroke:#4c72b0;stroke-width:2.25;stroke-linecap:round;stroke-opacity:0.2"
         id="path51" />
    </g>
    <g
       id="line2d_50">
      <path
         d="m 73.832727,59.079989 3.253052,2.570628 3.253052,2.258168 3.253052,1.998247 3.903661,2.11228 3.903663,1.849334 3.903661,1.625356 4.554273,1.653109 4.554269,1.427355 5.20489,1.393343 5.20488,1.174077 5.85549,1.094695 6.50611,0.974331 6.5061,0.75498 7.15671,0.612342 7.80733,0.443641 8.45793,0.254059 9.10854,0.04845 9.75916,-0.168828 11.06038,-0.425855 11.71098,-0.679771 13.01221,-0.984097 14.31342,-1.314203 15.61466,-1.660192 18.21708,-2.169389 20.16893,-2.636737 24.07257,-3.373986 32.53053,-4.820194 45.5427,-7.011103 16.26526,-2.512029 v 0"
         clip-path="url(#p4fb07a3a73)"
         style="fill:none;stroke:#4c72b0;stroke-width:2.25;stroke-linecap:round;stroke-opacity:0.2"
         id="path52" />
    </g>
    <g
       id="line2d_51">
      <path
         d="m 73.832727,295.488 2.602442,-1.92664 2.602441,-1.67625 2.602441,-1.44854 3.253052,-1.55356 3.903662,-1.58161 3.903661,-1.34819 4.554274,-1.3453 5.20488,-1.30348 5.8555,-1.23413 6.5061,-1.148 7.80732,-1.13918 8.45794,-1.00927 10.40976,-0.99923 11.71099,-0.88848 13.0122,-0.76724 16.26526,-0.72033 19.51832,-0.61577 23.42197,-0.49077 26.67502,-0.33163 31.87991,-0.18221 42.28967,-0.0109 60.50677,0.249 11.71096,0.0694 v 0"
         clip-path="url(#p4fb07a3a73)"
         style="fill:none;stroke:#c44e52;stroke-width:2.25;stroke-linecap:round"
         id="path53" />
    </g>
  </g>
  <defs
     id="defs53">
    <clipPath
       id="p4fb07a3a73">
      <rect
         x="57.599998"
         y="41.472"
         width="357.12"
         height="266.112"
         id="rect53" />
    </clipPath>
  </defs>
</svg>
