<?xml version="1.0" encoding="UTF-8" standalone="no"?>
<!-- Created with Inkscape (http://www.inkscape.org/) -->

<svg
   width="89.552689mm"
   height="60.030548mm"
   viewBox="0 0 89.552689 60.030548"
   version="1.1"
   id="svg1"
   xml:space="preserve"
   inkscape:version="1.4 (e7c3feb1, 2024-10-09)"
   sodipodi:docname="Heteroradialene combined.svg"
   inkscape:export-filename="Heteroradialene combined.png"
   inkscape:export-xdpi="374.78"
   inkscape:export-ydpi="374.78"
   xmlns:inkscape="http://www.inkscape.org/namespaces/inkscape"
   xmlns:sodipodi="http://sodipodi.sourceforge.net/DTD/sodipodi-0.dtd"
   xmlns="http://www.w3.org/2000/svg"
   xmlns:svg="http://www.w3.org/2000/svg"><sodipodi:namedview
     id="namedview1"
     pagecolor="#ffffff"
     bordercolor="#000000"
     borderopacity="0.25"
     inkscape:showpageshadow="2"
     inkscape:pageopacity="0.0"
     inkscape:pagecheckerboard="0"
     inkscape:deskcolor="#d1d1d1"
     inkscape:document-units="mm"
     inkscape:zoom="1.2989119"
     inkscape:cx="-119.71559"
     inkscape:cy="41.573258"
     inkscape:window-width="2560"
     inkscape:window-height="1387"
     inkscape:window-x="1920"
     inkscape:window-y="25"
     inkscape:window-maximized="0"
     inkscape:current-layer="layer1" /><defs
     id="defs1" /><g
     inkscape:label="Layer 1"
     inkscape:groupmode="layer"
     id="layer1"
     transform="translate(-60.413428,-92.453527)"><ellipse
       style="fill:#100500;fill-opacity:1;stroke:#000000;stroke-width:0.28193;stroke-dasharray:none;paint-order:fill markers stroke"
       id="circle667"
       cx="62.331112"
       cy="143.27873"
       rx="1.3044586"
       ry="1.3044587" /><path
       id="path710"
       style="fill:none;stroke:#ffffff;stroke-width:0.429;stroke-linecap:round;stroke-dasharray:none;stroke-dashoffset:0;paint-order:stroke fill markers"
       sodipodi:type="inkscape:offset"
       inkscape:radius="-1.0554965"
       inkscape:original="M 68.146484 136.83398 L 71.027344 141.38867 L 68.146484 136.83398 z "
       d="m 68.146484,136.83398 2.88086,4.55469 z" /><ellipse
       style="fill:#100500;fill-opacity:1;stroke:#000000;stroke-width:0.28193;stroke-dasharray:none;paint-order:fill markers stroke"
       id="circle668"
       cx="67.516365"
       cy="135.95096"
       rx="1.3044586"
       ry="1.3044587" /><path
       style="fill:none;stroke:#ffffff;stroke-width:0.429;stroke-linecap:round;stroke-dasharray:none;stroke-dashoffset:0;paint-order:stroke fill markers"
       d="m 72.68362,142.59457 9.380273,2.35857"
       id="path711" /><path
       style="fill:none;stroke:#000000;stroke-width:0.429;stroke-linecap:round;stroke-dasharray:0.0429, 0.858;stroke-dashoffset:0;paint-order:stroke fill markers"
       d="m 72.68362,142.59457 9.380273,2.35857"
       id="path691" /><path
       id="path690"
       style="fill:none;stroke:#000000;stroke-width:0.429;stroke-linecap:round;stroke-dasharray:0.0429, 0.858;stroke-dashoffset:0;paint-order:stroke fill markers"
       sodipodi:type="inkscape:offset"
       inkscape:radius="-1.0554965"
       inkscape:original="M 68.146484 136.83398 L 71.027344 141.38867 L 68.146484 136.83398 z "
       d="m 68.146484,136.83398 2.88086,4.55469 z" /><ellipse
       style="fill:#81b2fd;fill-opacity:1;stroke:#000000;stroke-width:0.28193;stroke-dasharray:none;paint-order:fill markers stroke"
       id="ellipse730"
       cx="71.639366"
       cy="142.36052"
       rx="1.3044587"
       ry="1.3044586" /><ellipse
       style="fill:#81b2fd;fill-opacity:1;stroke:#000000;stroke-width:0.28193;stroke-dasharray:none;paint-order:fill markers stroke"
       id="ellipse731"
       cx="144.46111"
       cy="106.90288"
       rx="1.3044587"
       ry="1.3044586" /><circle
       style="fill:#100500;fill-opacity:1;stroke:#000000;stroke-width:0.28193;stroke-dasharray:none;paint-order:fill markers stroke"
       id="circle670"
       cx="83.126152"
       cy="145.20522"
       r="1.3044587" /><ellipse
       style="fill:#100500;fill-opacity:1;stroke:#000000;stroke-width:0.28193;stroke-dasharray:none;paint-order:fill markers stroke"
       id="circle673"
       cx="94.000786"
       cy="146.98766"
       rx="1.3044586"
       ry="1.3044587" /><circle
       style="fill:#100500;fill-opacity:1;stroke:#000000;stroke-width:0.28193;stroke-dasharray:none;paint-order:fill markers stroke"
       id="circle674"
       cx="93.56868"
       cy="145.29524"
       r="1.3044587" /><circle
       style="fill:#febebe;fill-opacity:1;stroke:#000000;stroke-width:0.28193;stroke-dasharray:none;paint-order:fill markers stroke"
       id="circle675"
       cx="97.349594"
       cy="145.38527"
       r="1.3044587" /><circle
       style="fill:#fd0011;fill-opacity:1;stroke:#000000;stroke-width:0.28193;stroke-dasharray:none;paint-order:fill markers stroke"
       id="circle676"
       cx="104.69537"
       cy="145.61932"
       r="1.3044587" /><circle
       style="fill:#100500;fill-opacity:1;stroke:#000000;stroke-width:0.28193;stroke-dasharray:none;paint-order:fill markers stroke"
       id="circle677"
       cx="104.98344"
       cy="145.20523"
       r="1.3044587" /><circle
       style="fill:#100500;fill-opacity:1;stroke:#000000;stroke-width:0.28193;stroke-dasharray:none;paint-order:fill markers stroke"
       id="circle679"
       cx="105.36153"
       cy="145.70935"
       r="1.3044587" /><circle
       style="fill:#100500;fill-opacity:1;stroke:#000000;stroke-width:0.28193;stroke-dasharray:none;paint-order:fill markers stroke"
       id="circle680"
       cx="111.14093"
       cy="144.71912"
       r="1.3044587" /><path
       style="fill:none;stroke:#ffffff;stroke-width:0.429;stroke-linecap:round;stroke-dasharray:none;stroke-dashoffset:0;paint-order:stroke fill markers"
       d="m 115.60602,141.83838 -9.05619,3.11476"
       id="path721" /><path
       style="fill:none;stroke:#ffffff;stroke-width:0.429;stroke-linecap:round;stroke-dasharray:none;stroke-dashoffset:0;paint-order:stroke fill markers"
       d="m 115.1019,146.68156 10.7126,3.11475"
       id="path725" /><path
       style="fill:none;stroke:#000000;stroke-width:0.429;stroke-linecap:round;stroke-dasharray:0.0429, 0.858;stroke-dashoffset:0;paint-order:stroke fill markers"
       d="m 115.1019,146.68156 10.7126,3.11475"
       id="path705" /><circle
       style="fill:#81b2fd;fill-opacity:1;stroke:#000000;stroke-width:0.28193;stroke-dasharray:none;paint-order:fill markers stroke"
       id="circle681"
       cx="114.16566"
       cy="146.44754"
       r="1.3044587" /><path
       style="fill:none;stroke:#000000;stroke-width:0.429;stroke-linecap:round;stroke-dasharray:0.0429, 0.858;stroke-dashoffset:0;paint-order:stroke fill markers"
       d="m 115.60602,141.83838 -9.05619,3.11476"
       id="path701" /><circle
       style="fill:#100500;fill-opacity:1;stroke:#000000;stroke-width:0.28193;stroke-dasharray:none;paint-order:fill markers stroke"
       id="circle683"
       cx="116.59624"
       cy="141.47833"
       r="1.3044587" /><path
       style="fill:none;stroke:#ffffff;stroke-width:0.429;stroke-linecap:round;stroke-dasharray:none;stroke-dashoffset:0;paint-order:stroke fill markers"
       d="m 116.61339,143.93853 0.0141,-2.53998"
       id="path729"
       sodipodi:nodetypes="cc" /><ellipse
       style="fill:#100500;fill-opacity:1;stroke:#000000;stroke-width:0.28193;stroke-dasharray:none;paint-order:fill markers stroke"
       id="circle682"
       cx="116.65026"
       cy="144.03496"
       rx="1.3044587"
       ry="1.3044586" /><circle
       style="fill:#100500;fill-opacity:1;stroke:#000000;stroke-width:0.28193;stroke-dasharray:none;paint-order:fill markers stroke"
       id="circle686"
       cx="127.07478"
       cy="143.36879"
       r="1.3044587" /><circle
       style="fill:#100500;fill-opacity:1;stroke:#000000;stroke-width:0.28193;stroke-dasharray:none;paint-order:fill markers stroke"
       id="circle689"
       cx="142.32448"
       cy="151.03865"
       r="1.3044587" /><ellipse
       style="fill:#100500;fill-opacity:1;stroke:#000000;stroke-width:0.28193;stroke-dasharray:none;paint-order:fill markers stroke"
       id="ellipse733"
       cx="148.40996"
       cy="142.90068"
       rx="1.3044586"
       ry="1.3044587" /><ellipse
       style="fill:#100500;fill-opacity:1;stroke:#000000;stroke-width:0.28193;stroke-dasharray:none;paint-order:fill markers stroke"
       id="path667"
       cx="144.46111"
       cy="116.83036"
       rx="1.3044586"
       ry="1.3044587" /><path
       style="fill:none;stroke:#ffffff;stroke-width:0.429;stroke-linecap:round;stroke-dasharray:none;stroke-dashoffset:0;paint-order:stroke fill markers"
       d="m 63.411372,143.1527 7.147732,-0.68416"
       id="path709" /><path
       style="fill:none;stroke:#ffffff;stroke-width:0.429;stroke-linecap:round;stroke-dasharray:none;stroke-dashoffset:0;paint-order:stroke fill markers"
       d="m 84.170405,145.2052 8.336021,0.072"
       id="path712" /><path
       style="fill:none;stroke:#ffffff;stroke-width:0.429;stroke-linecap:round;stroke-dasharray:none;stroke-dashoffset:0;paint-order:stroke fill markers"
       d="m 93.010547,147.29371 -7.327776,2.59262"
       id="path713" /><path
       style="fill:none;stroke:#ffffff;stroke-width:0.429;stroke-linecap:round;stroke-dasharray:none;stroke-dashoffset:0;paint-order:stroke fill markers"
       d="M 84.008364,146.82559 83.360209,145.6013"
       id="path714" /><path
       style="fill:none;stroke:#ffffff;stroke-width:0.429;stroke-linecap:round;stroke-dasharray:none;stroke-dashoffset:0;paint-order:stroke fill markers"
       d="m 94.486906,145.31323 9.488304,-0.12604"
       id="path715" /><path
       style="fill:none;stroke:#ffffff;stroke-width:0.429;stroke-linecap:round;stroke-dasharray:none;stroke-dashoffset:0;paint-order:stroke fill markers"
       d="m 98.231813,145.51127 5.509337,0.054"
       id="path716" /><path
       style="fill:none;stroke:#ffffff;stroke-width:0.429;stroke-linecap:round;stroke-dasharray:none;stroke-dashoffset:0;paint-order:stroke fill markers"
       d="m 94.991027,146.8436 8.750123,-1.27831"
       id="path717" /><circle
       style="fill:#100500;fill-opacity:1;stroke:#000000;stroke-width:0.28193;stroke-dasharray:none;paint-order:fill markers stroke"
       id="circle678"
       cx="105.79363"
       cy="145.25925"
       r="1.3044587" /><path
       style="fill:none;stroke:#ffffff;stroke-width:0.429;stroke-linecap:round;stroke-dasharray:none;stroke-dashoffset:0;paint-order:stroke fill markers"
       d="m 106.06371,145.06117 9.75837,-0.97224"
       id="path718" /><path
       style="fill:none;stroke:#ffffff;stroke-width:0.429;stroke-linecap:round;stroke-dasharray:none;stroke-dashoffset:0;paint-order:stroke fill markers"
       d="m 111.46502,144.91713 1.81844,0.97223"
       id="path719" /><path
       style="fill:none;stroke:#ffffff;stroke-width:0.429;stroke-linecap:round;stroke-dasharray:none;stroke-dashoffset:0;paint-order:stroke fill markers"
       d="m 113.33747,146.35748 -6.85966,-0.54013"
       id="path720" /><path
       style="fill:none;stroke:#ffffff;stroke-width:0.429;stroke-linecap:round;stroke-dasharray:none;stroke-dashoffset:0;paint-order:stroke fill markers"
       d="m 117.40646,140.84814 6.85966,-4.77115"
       id="path722" /><path
       style="fill:none;stroke:#ffffff;stroke-width:0.429;stroke-linecap:round;stroke-dasharray:none;stroke-dashoffset:0;paint-order:stroke fill markers"
       d="m 117.47848,143.99891 8.62409,-0.55814"
       id="path723" /><path
       style="fill:none;stroke:#ffffff;stroke-width:0.429;stroke-linecap:round;stroke-dasharray:none;stroke-dashoffset:0;paint-order:stroke fill markers"
       d="m 126.91277,143.04468 -0.75619,-1.24231"
       id="path724" /><path
       style="fill:none;stroke:#ffffff;stroke-width:0.429;stroke-linecap:round;stroke-dasharray:none;stroke-dashoffset:0;paint-order:stroke fill markers"
       d="m 128.01103,143.53079 9.57832,1.78244"
       id="path726" /><path
       style="fill:none;stroke:#ffffff;stroke-width:0.429;stroke-linecap:round;stroke-dasharray:none;stroke-dashoffset:0;paint-order:stroke fill markers"
       d="m 142.03643,150.5885 -2.95272,-4.28503"
       id="path728" /><circle
       style="fill:#81b2fd;fill-opacity:1;stroke:#000000;stroke-width:0.28193;stroke-dasharray:none;paint-order:fill markers stroke"
       id="circle688"
       cx="138.56157"
       cy="145.4933"
       r="1.3044587" /><path
       style="fill:none;stroke:#ffffff;stroke-width:0.429;stroke-linecap:round;stroke-dasharray:none;stroke-dashoffset:0;paint-order:stroke fill markers"
       d="m 139.29977,145.33123 8.19199,-2.16052"
       id="path727" /><g
       id="g667"
       transform="matrix(0.46417624,0,0,0.46417624,59.325515,91.258505)"><path
         stroke="transparent"
         fill="#000000"
         transform="matrix(0.05,0,0,0.05,-22,-154)"
         d="m 1000.53,3998.26 -9.918,5.72 -9.922,-5.72 v -276.52 l 9.922,-5.72 9.918,5.72 z"
         id="path1" /><path
         stroke="transparent"
         fill="#000000"
         transform="matrix(0.05,0,0,0.05,-22,-154)"
         d="m 1052.37,3974.06 h -19.85 v -228.12 h 19.85 z"
         id="path2" /><path
         stroke="transparent"
         fill="#000000"
         transform="matrix(0.05,0,0,0.05,-22,-154)"
         d="m 1240,4136.51 v 11.46 l -9.92,5.73 -239.468,-138.26 v -11.46 l 9.918,-5.72 z"
         id="path3" /><path
         stroke="transparent"
         fill="#000000"
         transform="matrix(0.05,0,0,0.05,-22,-154)"
         d="m 1479.47,3998.26 9.92,5.72 v 11.46 l -239.47,138.26 -9.92,-5.73 v -11.46 z"
         id="path4" /><path
         stroke="transparent"
         fill="#000000"
         transform="matrix(0.05,0,0,0.05,-22,-154)"
         d="m 1432.59,3965.47 9.92,17.18 -197.55,114.06 -9.92,-17.19 z"
         id="path5" /><path
         stroke="transparent"
         fill="#000000"
         transform="matrix(0.05,0,0,0.05,-22,-154)"
         d="m 1479.47,3721.74 9.92,-5.72 9.92,5.72 v 276.52 l -9.92,5.72 -9.92,-5.72 z"
         id="path6" /><path
         stroke="transparent"
         fill="#000000"
         transform="matrix(0.05,0,0,0.05,-22,-154)"
         d="m 1240,3583.49 v -11.46 l 9.92,-5.73 239.47,138.26 v 11.46 l -9.92,5.72 z"
         id="path7" /><path
         stroke="transparent"
         fill="#000000"
         transform="matrix(0.05,0,0,0.05,-22,-154)"
         d="m 1235.04,3640.48 9.92,-17.19 197.55,114.06 -9.92,17.18 z"
         id="path8" /><path
         stroke="transparent"
         fill="#000000"
         transform="matrix(0.05,0,0,0.05,-22,-154)"
         d="m 1000.53,3721.74 -9.918,-5.72 v -11.46 l 239.468,-138.26 9.92,5.73 v 11.46 z"
         id="path9" /><text
         x="0"
         y="0"
         stroke="transparent"
         fill="#000000"
         transform="matrix(0.05,0,0,0.05,36.5039,13.7896)"
         style="font-style:normal;font-variant:normal;font-weight:normal;font-stretch:normal;font-size:200px;line-height:normal;font-family:Helvetica"
         id="text9">O</text><text
         x="0"
         y="0"
         stroke="transparent"
         fill="#000000"
         transform="matrix(0.05,0,0,0.05,44.2822,10.2031)"
         style="font-style:normal;font-variant:normal;font-weight:normal;font-stretch:normal;font-size:150px;line-height:normal;font-family:Helvetica"
         id="text10">-</text><path
         stroke="transparent"
         fill="#000000"
         transform="matrix(0.05,0,0,0.05,-22,-154)"
         d="m 1230.08,3394.68 h 19.84 v 171.62 l -9.92,5.73 -9.92,-5.73 z"
         id="path10" /><path
         stroke="transparent"
         fill="#000000"
         transform="matrix(0.05,0,0,0.05,-22,-154)"
         d="m 1728.86,3566.3 19.84,11.46 -249.39,143.98 -9.92,-5.72 v -11.46 z"
         id="path11" /><text
         x="0"
         y="0"
         stroke="transparent"
         fill="#000000"
         transform="matrix(0.05,0,0,0.05,61.4427,56.9849)"
         style="font-style:normal;font-variant:normal;font-weight:normal;font-stretch:normal;font-size:200px;line-height:normal;font-family:Helvetica"
         id="text11">O</text><text
         x="0"
         y="0"
         stroke="transparent"
         fill="#000000"
         transform="matrix(0.05,0,0,0.05,69.2211,53.3984)"
         style="font-style:normal;font-variant:normal;font-weight:normal;font-stretch:normal;font-size:150px;line-height:normal;font-family:Helvetica"
         id="text12">-</text><path
         stroke="transparent"
         fill="#000000"
         transform="matrix(0.05,0,0,0.05,-22,-154)"
         d="m 1652.54,4086.72 -9.92,17.19 -153.23,-88.47 v -11.46 l 9.92,-5.72 z"
         id="path12" /><path
         stroke="transparent"
         fill="#000000"
         transform="matrix(0.05,0,0,0.05,-22,-154)"
         d="m 1249.92,4441.67 -19.84,-11.46 V 4153.7 l 9.92,-5.73 9.92,5.73 z"
         id="path13" /><text
         x="0"
         y="0"
         stroke="transparent"
         fill="#000000"
         transform="matrix(0.05,0,0,0.05,8.28139,53.3984)"
         style="font-style:normal;font-variant:normal;font-weight:normal;font-stretch:normal;font-size:150px;line-height:normal;font-family:Helvetica"
         id="text13">-</text><text
         x="0"
         y="0"
         stroke="transparent"
         fill="#000000"
         transform="matrix(0.05,0,0,0.05,10.7789,56.9849)"
         style="font-style:normal;font-variant:normal;font-weight:normal;font-stretch:normal;font-size:200px;line-height:normal;font-family:Helvetica"
         id="text14">O</text><path
         stroke="transparent"
         fill="#000000"
         transform="matrix(0.05,0,0,0.05,-22,-154)"
         d="m 837.889,4103.62 -9.922,-17.19 152.723,-88.17 9.922,5.72 v 11.46 z"
         id="path14" /><path
         stroke="transparent"
         fill="#000000"
         transform="matrix(0.05,0,0,0.05,-22,-154)"
         d="m 731.302,3577.76 19.843,-11.46 239.467,138.26 v 11.46 l -9.922,5.72 z"
         id="path15" /><text
         x="0"
         y="0"
         stroke="transparent"
         fill="#000000"
         transform="matrix(0.05,0,0,0.05,62.0921,13.7896)"
         style="font-style:normal;font-variant:normal;font-weight:normal;font-stretch:normal;font-size:200px;line-height:normal;font-family:Helvetica"
         id="text15">N</text><text
         x="0"
         y="0"
         stroke="transparent"
         fill="#000000"
         transform="matrix(0.05,0,0,0.05,69.3138,10.2031)"
         style="font-style:normal;font-variant:normal;font-weight:normal;font-stretch:normal;font-size:150px;line-height:normal;font-family:Helvetica"
         id="text16">+</text><path
         stroke="transparent"
         fill="#000000"
         transform="matrix(0.05,0,0,0.05,-22,-154)"
         d="m 1728.86,3389.04 h 19.84 v 188.72 l -19.84,-11.46 z"
         id="path16" /><path
         stroke="transparent"
         fill="#000000"
         transform="matrix(0.05,0,0,0.05,-22,-154)"
         d="m 1677.02,3389.04 h 19.84 v 153.06 h -19.84 z"
         id="path17" /><text
         x="0"
         y="0"
         stroke="transparent"
         fill="#000000"
         transform="matrix(0.05,0,0,0.05,24.6839,78.5825)"
         style="font-style:normal;font-variant:normal;font-weight:normal;font-stretch:normal;font-size:200px;line-height:normal;font-family:Helvetica"
         id="text17">N</text><text
         x="0"
         y="0"
         stroke="transparent"
         fill="#000000"
         transform="matrix(0.05,0,0,0.05,31.9056,74.9961)"
         style="font-style:normal;font-variant:normal;font-weight:normal;font-stretch:normal;font-size:150px;line-height:normal;font-family:Helvetica"
         id="text18">+</text><path
         stroke="transparent"
         fill="#000000"
         transform="matrix(0.05,0,0,0.05,-22,-154)"
         d="m 1157.78,4494.86 -9.92,-17.18 82.22,-47.47 19.84,11.46 z"
         id="path18" /><path
         stroke="transparent"
         fill="#000000"
         transform="matrix(0.05,0,0,0.05,-22,-154)"
         d="m 1131.87,4449.97 -9.92,-17.18 61.25,-35.37 9.93,17.18 z"
         id="path19" /><text
         x="0"
         y="0"
         stroke="transparent"
         fill="#000000"
         transform="matrix(0.05,0,0,0.05,12.2145,13.7896)"
         style="font-style:normal;font-variant:normal;font-weight:normal;font-stretch:normal;font-size:200px;line-height:normal;font-family:Helvetica"
         id="text19">N</text><text
         x="0"
         y="0"
         stroke="transparent"
         fill="#000000"
         transform="matrix(0.05,0,0,0.05,19.4362,10.2031)"
         style="font-style:normal;font-variant:normal;font-weight:normal;font-stretch:normal;font-size:150px;line-height:normal;font-family:Helvetica"
         id="text20">+</text><path
         stroke="transparent"
         fill="#000000"
         transform="matrix(0.05,0,0,0.05,-22,-154)"
         d="m 731.302,3389.04 h 19.843 v 177.26 l -19.843,11.46 z"
         id="path20" /><path
         stroke="transparent"
         fill="#000000"
         transform="matrix(0.05,0,0,0.05,-22,-154)"
         d="m 783.137,3389.04 h 19.842 v 153.06 h -19.842 z"
         id="path21" /><path
         stroke="transparent"
         fill="#000000"
         transform="matrix(0.05,0,0,0.05,-22,-154)"
         d="m 486.875,3148.67 9.921,-17.18 147.828,85.34 -9.921,17.19 z"
         id="path22" /><path
         stroke="transparent"
         fill="#000000"
         transform="matrix(0.05,0,0,0.05,-22,-154)"
         d="m 985.651,3131.49 9.921,17.18 -86.743,50.08 -9.921,-17.18 z"
         id="path23" /><path
         stroke="transparent"
         fill="#000000"
         transform="matrix(0.05,0,0,0.05,-22,-154)"
         d="m 1983.2,3131.49 9.93,17.18 -86.75,50.08 -9.92,-17.18 z"
         id="path24" /><path
         stroke="transparent"
         fill="#000000"
         transform="matrix(0.05,0,0,0.05,-22,-154)"
         d="m 1484.43,3148.67 9.92,-17.18 147.83,85.34 -9.92,17.19 z"
         id="path25" /><path
         stroke="transparent"
         fill="#000000"
         transform="matrix(0.05,0,0,0.05,-22,-154)"
         d="M 1000.53,4867.89 H 980.69 V 4685.9 h 19.84 z"
         id="path26" /><path
         stroke="transparent"
         fill="#000000"
         transform="matrix(0.05,0,0,0.05,-22,-154)"
         d="m 736.263,4444.53 9.921,-17.18 148.261,85.59 -9.921,17.19 z"
         id="path27" /><path
         stroke="transparent"
         fill="#000000"
         transform="matrix(0.05,0,0,0.05,-22,-154)"
         d="m 2820.53,4008.26 -19.84,11.45 v -287.97 l 9.92,-5.72 9.92,5.72 z"
         id="path28" /><path
         stroke="transparent"
         fill="#000000"
         transform="matrix(0.05,0,0,0.05,-22,-154)"
         d="m 3060,4146.51 v 11.46 l -9.92,5.73 -249.39,-143.99 19.84,-11.45 z"
         id="path29" /><path
         stroke="transparent"
         fill="#000000"
         transform="matrix(0.05,0,0,0.05,-22,-154)"
         d="m 3299.47,4008.26 19.84,11.45 -249.39,143.99 -9.92,-5.73 v -11.46 z"
         id="path30" /><path
         stroke="transparent"
         fill="#000000"
         transform="matrix(0.05,0,0,0.05,-22,-154)"
         d="m 3299.47,3731.74 9.92,-5.72 9.92,5.72 v 287.97 l -19.84,-11.45 z"
         id="path31" /><path
         stroke="transparent"
         fill="#000000"
         transform="matrix(0.05,0,0,0.05,-22,-154)"
         d="m 3060,3593.49 v -22.91 l 249.39,143.98 v 11.46 l -9.92,5.72 z"
         id="path32" /><path
         stroke="transparent"
         fill="#000000"
         transform="matrix(0.05,0,0,0.05,-22,-154)"
         d="m 2820.53,3731.74 -9.92,-5.72 v -11.46 L 3060,3570.58 v 22.91 z"
         id="path33" /><text
         x="0"
         y="0"
         stroke="transparent"
         fill="#000000"
         transform="matrix(0.05,0,0,0.05,127.504,14.2896)"
         style="font-style:normal;font-variant:normal;font-weight:normal;font-stretch:normal;font-size:200px;line-height:normal;font-family:Helvetica"
         id="text33">O</text><path
         stroke="transparent"
         fill="#000000"
         transform="matrix(0.05,0,0,0.05,-22,-154)"
         d="M 3024.16,3404.41 H 3044 v 192.58 h -19.84 z"
         id="path34" /><path
         stroke="transparent"
         fill="#000000"
         transform="matrix(0.05,0,0,0.05,-22,-154)"
         d="m 3076,3404.41 h 19.84 v 192.58 H 3076 Z"
         id="path35" /><path
         stroke="transparent"
         fill="#000000"
         transform="matrix(0.05,0,0,0.05,-22,-154)"
         d="m 3548.85,3576.3 19.85,11.46 -249.39,143.98 -9.92,-5.72 v -11.46 z"
         id="path36" /><path
         stroke="transparent"
         fill="#000000"
         transform="matrix(0.05,0,0,0.05,-22,-154)"
         d="m 3501.98,3543.51 9.92,17.19 -197.55,114.05 -9.92,-17.18 z"
         id="path37" /><text
         x="0"
         y="0"
         stroke="transparent"
         fill="#000000"
         transform="matrix(0.05,0,0,0.05,152.443,57.4849)"
         style="font-style:normal;font-variant:normal;font-weight:normal;font-stretch:normal;font-size:200px;line-height:normal;font-family:Helvetica"
         id="text37">O</text><path
         stroke="transparent"
         fill="#000000"
         transform="matrix(0.05,0,0,0.05,-22,-154)"
         d="m 3485.38,4074.21 -9.92,17.18 -171.03,-98.74 9.92,-17.18 z"
         id="path38" /><path
         stroke="transparent"
         fill="#000000"
         transform="matrix(0.05,0,0,0.05,-22,-154)"
         d="m 3459.46,4119.1 -9.92,17.18 -171.03,-98.74 9.92,-17.18 z"
         id="path39" /><path
         stroke="transparent"
         fill="#000000"
         transform="matrix(0.05,0,0,0.05,-22,-154)"
         d="m 3069.92,4451.67 -19.84,-11.46 V 4163.7 l 9.92,-5.73 9.92,5.73 z"
         id="path40" /><path
         stroke="transparent"
         fill="#000000"
         transform="matrix(0.05,0,0,0.05,-22,-154)"
         d="m 3018.09,4416.01 h -19.85 V 4187.9 h 19.85 z"
         id="path41" /><text
         x="0"
         y="0"
         stroke="transparent"
         fill="#000000"
         transform="matrix(0.05,0,0,0.05,102.565,57.4849)"
         style="font-style:normal;font-variant:normal;font-weight:normal;font-stretch:normal;font-size:200px;line-height:normal;font-family:Helvetica"
         id="text41">O</text><path
         stroke="transparent"
         fill="#000000"
         transform="matrix(0.05,0,0,0.05,-22,-154)"
         d="m 2670.62,4136.19 -9.92,-17.18 170.87,-98.65 9.92,17.18 z"
         id="path42" /><path
         stroke="transparent"
         fill="#000000"
         transform="matrix(0.05,0,0,0.05,-22,-154)"
         d="m 2644.7,4091.3 -9.92,-17.18 170.87,-98.65 9.92,17.18 z"
         id="path43" /><path
         stroke="transparent"
         fill="#000000"
         transform="matrix(0.05,0,0,0.05,-22,-154)"
         d="m 2551.3,3587.76 19.84,-11.46 239.47,138.26 v 11.46 l -9.92,5.72 z"
         id="path44" /><path
         stroke="transparent"
         fill="#000000"
         transform="matrix(0.05,0,0,0.05,-22,-154)"
         d="m 2608.1,3560.7 9.92,-17.19 197.55,114.06 -9.92,17.18 z"
         id="path45" /><text
         x="0"
         y="0"
         stroke="transparent"
         fill="#000000"
         transform="matrix(0.05,0,0,0.05,153.092,14.2896)"
         style="font-style:normal;font-variant:normal;font-weight:normal;font-stretch:normal;font-size:200px;line-height:normal;font-family:Helvetica"
         id="text45">N</text><path
         stroke="transparent"
         fill="#000000"
         transform="matrix(0.05,0,0,0.05,-22,-154)"
         d="m 3548.85,3397.37 h 19.85 v 190.39 l -19.85,-11.46 z"
         id="path46" /><text
         x="0"
         y="0"
         stroke="transparent"
         fill="#000000"
         transform="matrix(0.05,0,0,0.05,115.684,79.0825)"
         style="font-style:normal;font-variant:normal;font-weight:normal;font-stretch:normal;font-size:200px;line-height:normal;font-family:Helvetica"
         id="text46">N</text><path
         stroke="transparent"
         fill="#000000"
         transform="matrix(0.05,0,0,0.05,-22,-154)"
         d="m 2917.57,4539.63 -9.92,-17.19 142.43,-82.23 19.84,11.46 z"
         id="path47" /><text
         x="0"
         y="0"
         stroke="transparent"
         fill="#000000"
         transform="matrix(0.05,0,0,0.05,103.214,14.2896)"
         style="font-style:normal;font-variant:normal;font-weight:normal;font-stretch:normal;font-size:200px;line-height:normal;font-family:Helvetica"
         id="text47">N</text><path
         stroke="transparent"
         fill="#000000"
         transform="matrix(0.05,0,0,0.05,-22,-154)"
         d="m 2551.3,3397.37 h 19.84 v 178.93 l -19.84,11.46 z"
         id="path48" /><path
         stroke="transparent"
         fill="#000000"
         transform="matrix(0.05,0,0,0.05,-22,-154)"
         d="m 2306.87,3158.67 9.93,-17.18 147.1,84.93 -9.92,17.18 z"
         id="path49" /><path
         stroke="transparent"
         fill="#000000"
         transform="matrix(0.05,0,0,0.05,-22,-154)"
         d="m 2805.65,3141.49 9.92,17.18 -147.39,85.1 -9.92,-17.19 z"
         id="path50" /><path
         stroke="transparent"
         fill="#000000"
         transform="matrix(0.05,0,0,0.05,-22,-154)"
         d="m 3803.2,3141.49 9.93,17.18 -147.4,85.1 -9.92,-17.19 z"
         id="path51" /><path
         stroke="transparent"
         fill="#000000"
         transform="matrix(0.05,0,0,0.05,-22,-154)"
         d="m 3304.43,3158.67 9.92,-17.18 147.1,84.93 -9.92,17.18 z"
         id="path52" /><path
         stroke="transparent"
         fill="#000000"
         transform="matrix(0.05,0,0,0.05,-22,-154)"
         d="m 2820.53,4877.89 h -19.84 v -184.67 h 19.84 z"
         id="path53" /><path
         stroke="transparent"
         fill="#000000"
         transform="matrix(0.05,0,0,0.05,-22,-154)"
         d="m 2556.26,4454.53 9.92,-17.18 147.11,84.92 -9.93,17.19 z"
         id="path54" /><path
         stroke="transparent"
         fill="#000000"
         transform="matrix(0.05,0,0,0.05,-22,-154)"
         d="m 2364.41,3920 h -378.82 v -20 h 378.82 z"
         id="path55" /><path
         stroke="transparent"
         fill="#000000"
         transform="matrix(0.05,0,0,0.05,-22,-154)"
         d="m 2450,3910 c 0,0 -98.95,58.72 -98.95,58.72 0,0 12.36,-33.03 12.36,-58.72 0,-26.13 -12.36,-59.72 -12.36,-59.72 0,0 98.95,59.72 98.95,59.72 0,0 0,0 0,0"
         id="path56" /><path
         stroke="#000000"
         stroke-width="1"
         fill="transparent"
         transform="matrix(0.05,0,0,0.05,-22,-154)"
         d="m 2450,3910 c 0,0 -98.95,58.72 -98.95,58.72 0,0 12.36,-33.03 12.36,-58.72 0,-26.13 -12.36,-59.72 -12.36,-59.72 0,0 98.95,59.72 98.95,59.72 0,0 0,0 0,0"
         id="path57" /><path
         stroke="transparent"
         fill="#000000"
         transform="matrix(0.05,0,0,0.05,-22,-154)"
         d="m 1900,3910 c 0,0 98.95,59.72 98.95,59.72 0,0 -12.36,-33.59 -12.36,-59.72 0,-25.69 12.36,-58.72 12.36,-58.72 0,0 -98.95,58.72 -98.95,58.72 0,0 0,0 0,0"
         id="path58" /><path
         stroke="#000000"
         stroke-width="1"
         fill="transparent"
         transform="matrix(0.05,0,0,0.05,-22,-154)"
         d="m 1900,3910 c 0,0 98.95,59.72 98.95,59.72 0,0 -12.36,-33.59 -12.36,-59.72 0,-25.69 12.36,-58.72 12.36,-58.72 0,0 -98.95,58.72 -98.95,58.72 0,0 0,0 0,0"
         id="path59" /></g><path
       style="fill:none;stroke:#000000;stroke-width:0.429;stroke-linecap:round;stroke-dasharray:0.0429, 0.858;stroke-dashoffset:0;paint-order:stroke fill markers"
       d="m 63.411372,143.1527 7.147732,-0.68416"
       id="path689" /><path
       style="fill:none;stroke:#000000;stroke-width:0.429;stroke-linecap:round;stroke-dasharray:0.0429, 0.858;stroke-dashoffset:0;paint-order:stroke fill markers"
       d="m 84.170405,145.2052 8.336021,0.072"
       id="path692" /><path
       style="fill:none;stroke:#000000;stroke-width:0.429;stroke-linecap:round;stroke-dasharray:0.0429, 0.858;stroke-dashoffset:0;paint-order:stroke fill markers"
       d="m 93.010547,147.29371 -7.327776,2.59262"
       id="path693" /><path
       style="fill:none;stroke:#000000;stroke-width:0.429;stroke-linecap:round;stroke-dasharray:0.0429, 0.858;stroke-dashoffset:0;paint-order:stroke fill markers"
       d="M 84.008364,146.82559 83.360209,145.6013"
       id="path694" /><path
       style="fill:none;stroke:#000000;stroke-width:0.429;stroke-linecap:round;stroke-dasharray:0.0429, 0.858;stroke-dashoffset:0;paint-order:stroke fill markers"
       d="m 94.486906,145.31323 9.488304,-0.12604"
       id="path695" /><path
       style="fill:none;stroke:#000000;stroke-width:0.429;stroke-linecap:round;stroke-dasharray:0.0429, 0.858;stroke-dashoffset:0;paint-order:stroke fill markers"
       d="m 98.231813,145.51127 5.509337,0.054"
       id="path696" /><path
       style="fill:none;stroke:#000000;stroke-width:0.429;stroke-linecap:round;stroke-dasharray:0.0429, 0.858;stroke-dashoffset:0;paint-order:stroke fill markers"
       d="m 94.991027,146.8436 8.750123,-1.27831"
       id="path697" /><path
       style="fill:none;stroke:#000000;stroke-width:0.429;stroke-linecap:round;stroke-dasharray:0.0429, 0.858;stroke-dashoffset:0;paint-order:stroke fill markers"
       d="m 106.06371,145.06117 9.75837,-0.97224"
       id="path698" /><path
       style="fill:none;stroke:#000000;stroke-width:0.429;stroke-linecap:round;stroke-dasharray:0.0429, 0.858;stroke-dashoffset:0;paint-order:stroke fill markers"
       d="m 111.46502,144.91713 1.81844,0.97223"
       id="path699" /><path
       style="fill:none;stroke:#000000;stroke-width:0.429;stroke-linecap:round;stroke-dasharray:0.0429, 0.858;stroke-dashoffset:0;paint-order:stroke fill markers"
       d="m 113.33747,146.35748 -6.85966,-0.54013"
       id="path700" /><path
       style="fill:none;stroke:#000000;stroke-width:0.429;stroke-linecap:round;stroke-dasharray:0.0429, 0.858;stroke-dashoffset:0;paint-order:stroke fill markers"
       d="m 117.40646,140.84814 6.85966,-4.77115"
       id="path702" /><path
       style="fill:none;stroke:#000000;stroke-width:0.429;stroke-linecap:round;stroke-dasharray:0.0429, 0.858;stroke-dashoffset:0;paint-order:stroke fill markers"
       d="m 117.47848,143.99891 8.62409,-0.55814"
       id="path703" /><path
       style="fill:none;stroke:#000000;stroke-width:0.429;stroke-linecap:round;stroke-dasharray:0.0429, 0.858;stroke-dashoffset:0;paint-order:stroke fill markers"
       d="m 126.91277,143.04468 -0.75619,-1.24231"
       id="path704" /><path
       style="fill:none;stroke:#000000;stroke-width:0.429;stroke-linecap:round;stroke-dasharray:0.0429, 0.858;stroke-dashoffset:0;paint-order:stroke fill markers"
       d="m 128.01103,143.53079 9.57832,1.78244"
       id="path706" /><path
       style="fill:none;stroke:#000000;stroke-width:0.429;stroke-linecap:round;stroke-dasharray:0.0429, 0.858;stroke-dashoffset:0;paint-order:stroke fill markers"
       d="m 139.29977,145.33123 8.19199,-2.16052"
       id="path707" /><path
       style="fill:none;stroke:#000000;stroke-width:0.429;stroke-linecap:round;stroke-dasharray:0.0429, 0.858;stroke-dashoffset:0;paint-order:stroke fill markers"
       d="m 142.03643,150.5885 -2.95272,-4.28503"
       id="path708" /><circle
       style="fill:#febebe;fill-opacity:1;stroke:#000000;stroke-width:0.28193;stroke-dasharray:none;paint-order:fill markers stroke"
       id="circle730"
       cx="125.65243"
       cy="141.01022"
       r="1.3044586" /><circle
       style="fill:#febebe;fill-opacity:1;stroke:#000000;stroke-width:0.28193;stroke-dasharray:none;paint-order:fill markers stroke"
       id="circle685"
       cx="144.46111"
       cy="101.93913"
       r="1.3044586" /><circle
       style="fill:#fd0011;fill-opacity:1;stroke:#000000;stroke-width:0.28193;stroke-dasharray:none;paint-order:fill markers stroke"
       id="circle684"
       cx="124.98627"
       cy="135.57291"
       r="1.3044587" /><path
       style="fill:none;stroke:#000000;stroke-width:0.429;stroke-linecap:round;stroke-dasharray:0.0429, 0.858;stroke-dashoffset:0;paint-order:stroke fill markers"
       d="m 116.61339,143.93853 0.0141,-2.53998"
       id="path730"
       sodipodi:nodetypes="cc" /><circle
       style="fill:#febebe;fill-opacity:1;stroke:#000000;stroke-width:0.28193;stroke-dasharray:none;paint-order:fill markers stroke"
       id="circle671"
       cx="84.512489"
       cy="147.70782"
       r="1.3044587" /><ellipse
       style="fill:#fd0011;fill-opacity:1;stroke:#000000;stroke-width:0.28193;stroke-dasharray:none;paint-order:fill markers stroke"
       id="ellipse732"
       cx="84.620514"
       cy="150.13841"
       rx="1.3044587"
       ry="1.3044586" /><ellipse
       style="fill:#fd0011;fill-opacity:1;stroke:#000000;stroke-width:0.28193;stroke-dasharray:none;paint-order:fill markers stroke"
       id="circle672"
       cx="144.46111"
       cy="111.86662"
       rx="1.3044587"
       ry="1.3044586" /><circle
       style="fill:#100500;fill-opacity:1;stroke:#000000;stroke-width:0.28193;stroke-dasharray:none;paint-order:fill markers stroke"
       id="circle687"
       cx="126.7147"
       cy="150.06641"
       r="1.3044587" /><text
       xml:space="preserve"
       style="font-size:3.88056px;line-height:0.8;font-family:Arial;-inkscape-font-specification:Arial;text-align:center;text-decoration-color:#000000;letter-spacing:0px;word-spacing:0px;writing-mode:lr-tb;direction:ltr;text-anchor:middle;white-space:pre;fill:#000000;fill-opacity:1;stroke:none;stroke-width:0.233;stroke-linecap:round;stroke-dasharray:none;stroke-dashoffset:0;paint-order:fill markers stroke"
       x="148.63123"
       y="102.99876"
       id="text734"><tspan
         sodipodi:role="line"
         id="tspan734"
         style="fill:#000000;stroke:none;stroke-width:0.233"
         x="148.63123"
         y="102.99876">H</tspan></text><text
       xml:space="preserve"
       style="font-size:3.88056px;line-height:0.8;font-family:Arial;-inkscape-font-specification:Arial;text-align:center;text-decoration-color:#000000;letter-spacing:0px;word-spacing:0px;writing-mode:lr-tb;direction:ltr;text-anchor:middle;white-space:pre;fill:#000000;fill-opacity:1;stroke:none;stroke-width:0.233;stroke-linecap:round;stroke-dasharray:none;stroke-dashoffset:0;paint-order:fill markers stroke"
       x="148.63123"
       y="108.03997"
       id="text735"><tspan
         sodipodi:role="line"
         id="tspan735"
         style="fill:#000000;stroke:none;stroke-width:0.233"
         x="148.63123"
         y="108.03997">N</tspan></text><text
       xml:space="preserve"
       style="font-size:3.88056px;line-height:0.8;font-family:Arial;-inkscape-font-specification:Arial;text-align:center;text-decoration-color:#000000;letter-spacing:0px;word-spacing:0px;writing-mode:lr-tb;direction:ltr;text-anchor:middle;white-space:pre;fill:#000000;fill-opacity:1;stroke:none;stroke-width:0.233;stroke-linecap:round;stroke-dasharray:none;stroke-dashoffset:0;paint-order:fill markers stroke"
       x="148.63123"
       y="113.00917"
       id="text736"><tspan
         sodipodi:role="line"
         id="tspan736"
         style="fill:#000000;stroke:none;stroke-width:0.233"
         x="148.63123"
         y="113.00917">O</tspan></text><text
       xml:space="preserve"
       style="font-size:3.88056px;line-height:0.8;font-family:Arial;-inkscape-font-specification:Arial;text-align:center;text-decoration-color:#000000;letter-spacing:0px;word-spacing:0px;writing-mode:lr-tb;direction:ltr;text-anchor:middle;white-space:pre;fill:#000000;fill-opacity:1;stroke:none;stroke-width:0.233;stroke-linecap:round;stroke-dasharray:none;stroke-dashoffset:0;paint-order:fill markers stroke"
       x="148.63123"
       y="118.12241"
       id="text733"><tspan
         sodipodi:role="line"
         id="tspan733"
         style="fill:#000000;stroke:none;stroke-width:0.233"
         x="148.63123"
         y="118.12241">C</tspan></text></g></svg>
